<svg xmlns="http://www.w3.org/2000/svg" width="40" height="40" viewBox="0 0 20 20" fill="none">
  <path d="M10 1.66669C8.90567 1.66669 7.82204 1.88224 6.81099 2.30102C5.79994 2.71981 4.88129 3.33364 4.10746 4.10746C2.54466 5.67027 1.66669 7.78988 1.66669 10C1.66669 13.6834 4.05835 16.8084 7.36669 17.9167C7.78335 17.9834 7.91669 17.725 7.91669 17.5V16.0917C5.60835 16.5917 5.11669 14.975 5.11669 14.975C4.73335 14.0084 4.19169 13.75 4.19169 13.75C3.43335 13.2334 4.25002 13.25 4.25002 13.25C5.08335 13.3084 5.52502 14.1084 5.52502 14.1084C6.25002 15.375 7.47502 15 7.95002 14.8C8.02502 14.2584 8.24169 13.8917 8.47502 13.6834C6.62502 13.475 4.68335 12.7584 4.68335 9.58335C4.68335 8.65835 5.00002 7.91669 5.54169 7.32502C5.45835 7.11669 5.16669 6.25002 5.62502 5.12502C5.62502 5.12502 6.32502 4.90002 7.91669 5.97502C8.57502 5.79169 9.29169 5.70002 10 5.70002C10.7084 5.70002 11.425 5.79169 12.0834 5.97502C13.675 4.90002 14.375 5.12502 14.375 5.12502C14.8334 6.25002 14.5417 7.11669 14.4584 7.32502C15 7.91669 15.3167 8.65835 15.3167 9.58335C15.3167 12.7667 13.3667 13.4667 11.5084 13.675C11.8084 13.9334 12.0834 14.4417 12.0834 15.2167V17.5C12.0834 17.725 12.2167 17.9917 12.6417 17.9167C15.95 16.8 18.3334 13.6834 18.3334 10C18.3334 8.90567 18.1178 7.82204 17.699 6.81099C17.2802 5.79995 16.6664 4.88129 15.8926 4.10746C15.1188 3.33364 14.2001 2.71981 13.189 2.30102C12.178 1.88224 11.0944 1.66669 10 1.66669Z" fill="#444C56"/>
</svg>