<svg xmlns="http://www.w3.org/2000/svg" width="35" height="35" viewBox="0 0 35 35" fill="none">
  <g clip-path="url(#clip0_29_273)">
    <path fill-rule="evenodd" clip-rule="evenodd" d="M17.5 2.91666C9.44561 2.91666 2.91666 9.44561 2.91666 17.5C2.91666 25.5544 9.44561 32.0833 17.5 32.0833C25.5544 32.0833 32.0833 25.5544 32.0833 17.5C32.0833 9.44561 25.5544 2.91666 17.5 2.91666ZM12.3958 13.8542C12.3958 13.1839 12.5278 12.5201 12.7844 11.9009C13.0409 11.2816 13.4168 10.7189 13.8908 10.245C14.3648 9.771 14.9274 9.39503 15.5467 9.13852C16.166 8.88201 16.8297 8.74999 17.5 8.74999C18.1703 8.74999 18.834 8.88201 19.4533 9.13852C20.0725 9.39503 20.6352 9.771 21.1092 10.245C21.5831 10.7189 21.9591 11.2816 22.2156 11.9009C22.4721 12.5201 22.6042 13.1839 22.6042 13.8542C22.6042 15.2079 22.0664 16.5061 21.1092 17.4633C20.152 18.4206 18.8537 18.9583 17.5 18.9583C16.1463 18.9583 14.848 18.4206 13.8908 17.4633C12.9336 16.5061 12.3958 15.2079 12.3958 13.8542ZM26.6262 24.7683C25.5346 26.1415 24.1468 27.2503 22.5665 28.012C20.9862 28.7736 19.2542 29.1683 17.5 29.1667C15.7457 29.1683 14.0138 28.7736 12.4335 28.012C10.8532 27.2503 9.46539 26.1415 8.37374 24.7683C10.7377 23.0723 13.9635 21.875 17.5 21.875C21.0364 21.875 24.2623 23.0723 26.6262 24.7683Z" fill="#444C56"/>
  </g>
  <defs>
    <clipPath id="clip0_29_273">
      <rect width="35" height="35" fill="white"/>
    </clipPath>
  </defs>
</svg>