<svg xmlns="http://www.w3.org/2000/svg" width="33" height="33" viewBox="0 0 15 16" fill="none">
  <path d="M1.85 0.599976C0.8251 0.599976 0 1.42508 0 2.44998V13.55C0 14.5749 0.8251 15.4 1.85 15.4H12.95C13.9749 15.4 14.8 14.5749 14.8 13.55V2.44998C14.8 1.42508 13.9749 0.599976 12.95 0.599976H1.85ZM6.09452 4.45414C6.48302 4.45414 6.71427 4.63914 6.78827 5.00914L7.69045 10.1293C7.9772 9.75008 8.21215 9.43064 8.39715 9.17164C8.70365 8.72988 8.96851 8.26064 9.18833 7.76996C9.43808 7.24271 9.56327 6.77096 9.56327 6.35471C9.56327 6.10496 9.49358 5.90639 9.35483 5.75839C9.22533 5.60114 8.9799 5.40258 8.61915 5.16208C8.98915 4.69033 9.45165 4.45414 10.0066 4.45414C10.3026 4.45414 10.5481 4.54233 10.7423 4.71808C10.9458 4.89383 11.047 5.15221 11.047 5.49508C11.047 6.06858 10.8065 6.78576 10.3255 7.64601C9.85372 8.49701 8.94352 9.77783 7.59302 11.4891L6.2197 11.5853L5.16458 5.64801H3.77708V5.06464C4.14708 4.94439 4.58183 4.81428 5.08133 4.67614C5.58083 4.52814 5.91877 4.45414 6.09452 4.45414Z" fill="#444C56"/>
</svg>